<mxfile host="app.diagrams.net" modified="2024-06-18T20:31:47.950Z" agent="Mozilla/5.0 (Windows NT 10.0; Win64; x64) AppleWebKit/537.36 (KHTML, like Gecko) Chrome/125.0.0.0 Safari/537.36" etag="FaRRtCcebXkoG8DfJneH" version="24.5.5" type="github">
  <diagram name="Page-1" id="c7558073-3199-34d8-9f00-42111426c3f3">
    <mxGraphModel dx="2260" dy="746" grid="1" gridSize="10" guides="1" tooltips="1" connect="1" arrows="1" fold="1" page="1" pageScale="1" pageWidth="826" pageHeight="1169" background="#F2F2F2" math="0" shadow="0">
      <root>
        <mxCell id="0" />
        <mxCell id="1" parent="0" />
        <mxCell id="Z-1HHLMNf0BsMq-CNGto-121" value="" style="edgeStyle=orthogonalEdgeStyle;rounded=0;orthogonalLoop=1;jettySize=auto;html=1;" edge="1" parent="1" source="Z-1HHLMNf0BsMq-CNGto-101" target="Z-1HHLMNf0BsMq-CNGto-120">
          <mxGeometry relative="1" as="geometry" />
        </mxCell>
        <mxCell id="Z-1HHLMNf0BsMq-CNGto-101" value="&lt;font style=&quot;font-size: 18px;&quot; face=&quot;Tahoma&quot;&gt;Incoming Customer Emails&lt;/font&gt;" style="rounded=1;whiteSpace=wrap;html=1;glass=0;fillColor=#1490df;strokeColor=none;fontColor=#ffffff;shadow=1;spacingLeft=90;arcSize=37;spacingRight=20;" vertex="1" parent="1">
          <mxGeometry x="-780" y="250" width="180" height="110" as="geometry" />
        </mxCell>
        <mxCell id="Z-1HHLMNf0BsMq-CNGto-102" value="" style="shape=image;imageAspect=0;aspect=fixed;verticalLabelPosition=bottom;verticalAlign=top;image=https://upload.wikimedia.org/wikipedia/commons/d/df/Microsoft_Office_Outlook_%282018%E2%80%93present%29.svg;fontColor=default;textShadow=0;labelBorderColor=none;" vertex="1" parent="1">
          <mxGeometry x="-760" y="277.5" width="59.03" height="55" as="geometry" />
        </mxCell>
        <mxCell id="Z-1HHLMNf0BsMq-CNGto-120" value="&lt;span style=&quot;font-family: Tahoma; font-size: 18px;&quot;&gt;GPT-4o Classifier&lt;/span&gt;" style="rounded=1;whiteSpace=wrap;html=1;glass=0;shadow=1;spacingLeft=90;arcSize=37;spacingRight=20;fillColor=default;strokeColor=none;" vertex="1" parent="1">
          <mxGeometry x="-520" y="250" width="180" height="110" as="geometry" />
        </mxCell>
      </root>
    </mxGraphModel>
  </diagram>
</mxfile>
